<mxfile host="app.diagrams.net" modified="2024-06-20T04:54:22.502Z" agent="Mozilla/5.0 (Macintosh; Intel Mac OS X 10_15_7) AppleWebKit/537.36 (KHTML, like Gecko) Chrome/126.0.0.0 Safari/537.36" etag="ezvAZ4Pde_m3DDBTSbIm" version="24.5.5" type="github">
  <diagram id="C5RBs43oDa-KdzZeNtuy" name="Page-1">
    <mxGraphModel dx="3816" dy="2252" grid="1" gridSize="10" guides="1" tooltips="1" connect="1" arrows="1" fold="1" page="1" pageScale="1" pageWidth="827" pageHeight="1169" math="0" shadow="0">
      <root>
        <mxCell id="WIyWlLk6GJQsqaUBKTNV-0" />
        <mxCell id="WIyWlLk6GJQsqaUBKTNV-1" parent="WIyWlLk6GJQsqaUBKTNV-0" />
        <mxCell id="3X7p2unca6fkdNCQizrL-3" style="edgeStyle=orthogonalEdgeStyle;rounded=0;orthogonalLoop=1;jettySize=auto;html=1;exitX=1;exitY=0.5;exitDx=0;exitDy=0;entryX=0;entryY=0.5;entryDx=0;entryDy=0;" edge="1" parent="WIyWlLk6GJQsqaUBKTNV-1" source="3X7p2unca6fkdNCQizrL-1" target="3X7p2unca6fkdNCQizrL-2">
          <mxGeometry relative="1" as="geometry" />
        </mxCell>
        <mxCell id="3X7p2unca6fkdNCQizrL-1" value="Deposit&lt;div&gt;Begin&lt;/div&gt;" style="rounded=1;whiteSpace=wrap;html=1;arcSize=50;" vertex="1" parent="WIyWlLk6GJQsqaUBKTNV-1">
          <mxGeometry x="70" y="120" width="120" height="60" as="geometry" />
        </mxCell>
        <mxCell id="3X7p2unca6fkdNCQizrL-5" style="edgeStyle=orthogonalEdgeStyle;rounded=0;orthogonalLoop=1;jettySize=auto;html=1;exitX=1;exitY=0.5;exitDx=0;exitDy=0;entryX=0;entryY=0.5;entryDx=0;entryDy=0;" edge="1" parent="WIyWlLk6GJQsqaUBKTNV-1" source="3X7p2unca6fkdNCQizrL-2" target="3X7p2unca6fkdNCQizrL-4">
          <mxGeometry relative="1" as="geometry" />
        </mxCell>
        <mxCell id="3X7p2unca6fkdNCQizrL-2" value="self.account.deposit(amount)" style="rounded=1;whiteSpace=wrap;html=1;" vertex="1" parent="WIyWlLk6GJQsqaUBKTNV-1">
          <mxGeometry x="290" y="120" width="180" height="60" as="geometry" />
        </mxCell>
        <mxCell id="3X7p2unca6fkdNCQizrL-7" style="edgeStyle=orthogonalEdgeStyle;rounded=0;orthogonalLoop=1;jettySize=auto;html=1;exitX=1;exitY=0.5;exitDx=0;exitDy=0;entryX=0;entryY=0.5;entryDx=0;entryDy=0;" edge="1" parent="WIyWlLk6GJQsqaUBKTNV-1" source="3X7p2unca6fkdNCQizrL-4" target="3X7p2unca6fkdNCQizrL-6">
          <mxGeometry relative="1" as="geometry" />
        </mxCell>
        <mxCell id="3X7p2unca6fkdNCQizrL-16" style="edgeStyle=orthogonalEdgeStyle;rounded=0;orthogonalLoop=1;jettySize=auto;html=1;exitX=0.5;exitY=1;exitDx=0;exitDy=0;entryX=0.5;entryY=0;entryDx=0;entryDy=0;" edge="1" parent="WIyWlLk6GJQsqaUBKTNV-1" source="3X7p2unca6fkdNCQizrL-4" target="3X7p2unca6fkdNCQizrL-13">
          <mxGeometry relative="1" as="geometry" />
        </mxCell>
        <mxCell id="3X7p2unca6fkdNCQizrL-4" value="amount&amp;gt;0?" style="rhombus;whiteSpace=wrap;html=1;" vertex="1" parent="WIyWlLk6GJQsqaUBKTNV-1">
          <mxGeometry x="530" y="100" width="100" height="100" as="geometry" />
        </mxCell>
        <mxCell id="3X7p2unca6fkdNCQizrL-10" style="edgeStyle=orthogonalEdgeStyle;rounded=0;orthogonalLoop=1;jettySize=auto;html=1;exitX=1;exitY=0.5;exitDx=0;exitDy=0;entryX=0;entryY=0.5;entryDx=0;entryDy=0;" edge="1" parent="WIyWlLk6GJQsqaUBKTNV-1" source="3X7p2unca6fkdNCQizrL-6" target="3X7p2unca6fkdNCQizrL-9">
          <mxGeometry relative="1" as="geometry" />
        </mxCell>
        <mxCell id="3X7p2unca6fkdNCQizrL-6" value="balance + amount" style="rounded=0;whiteSpace=wrap;html=1;" vertex="1" parent="WIyWlLk6GJQsqaUBKTNV-1">
          <mxGeometry x="700" y="120" width="190" height="60" as="geometry" />
        </mxCell>
        <mxCell id="3X7p2unca6fkdNCQizrL-8" value="True" style="text;html=1;align=center;verticalAlign=middle;resizable=0;points=[];autosize=1;strokeColor=none;fillColor=none;" vertex="1" parent="WIyWlLk6GJQsqaUBKTNV-1">
          <mxGeometry x="640" y="110" width="50" height="30" as="geometry" />
        </mxCell>
        <mxCell id="3X7p2unca6fkdNCQizrL-12" style="edgeStyle=orthogonalEdgeStyle;rounded=0;orthogonalLoop=1;jettySize=auto;html=1;exitX=0.5;exitY=1;exitDx=0;exitDy=0;" edge="1" parent="WIyWlLk6GJQsqaUBKTNV-1" source="3X7p2unca6fkdNCQizrL-9" target="3X7p2unca6fkdNCQizrL-11">
          <mxGeometry relative="1" as="geometry" />
        </mxCell>
        <mxCell id="3X7p2unca6fkdNCQizrL-9" value="Return True" style="rounded=0;whiteSpace=wrap;html=1;" vertex="1" parent="WIyWlLk6GJQsqaUBKTNV-1">
          <mxGeometry x="950" y="120" width="120" height="60" as="geometry" />
        </mxCell>
        <mxCell id="3X7p2unca6fkdNCQizrL-11" value="End" style="rounded=1;whiteSpace=wrap;html=1;arcSize=50;" vertex="1" parent="WIyWlLk6GJQsqaUBKTNV-1">
          <mxGeometry x="950" y="250" width="120" height="60" as="geometry" />
        </mxCell>
        <mxCell id="3X7p2unca6fkdNCQizrL-15" style="edgeStyle=orthogonalEdgeStyle;rounded=0;orthogonalLoop=1;jettySize=auto;html=1;exitX=1;exitY=0.5;exitDx=0;exitDy=0;entryX=0;entryY=0.5;entryDx=0;entryDy=0;" edge="1" parent="WIyWlLk6GJQsqaUBKTNV-1" source="3X7p2unca6fkdNCQizrL-13" target="3X7p2unca6fkdNCQizrL-11">
          <mxGeometry relative="1" as="geometry" />
        </mxCell>
        <mxCell id="3X7p2unca6fkdNCQizrL-13" value="Return False" style="rounded=0;whiteSpace=wrap;html=1;" vertex="1" parent="WIyWlLk6GJQsqaUBKTNV-1">
          <mxGeometry x="520" y="250" width="120" height="60" as="geometry" />
        </mxCell>
        <mxCell id="3X7p2unca6fkdNCQizrL-17" value="False" style="text;html=1;align=center;verticalAlign=middle;resizable=0;points=[];autosize=1;strokeColor=none;fillColor=none;" vertex="1" parent="WIyWlLk6GJQsqaUBKTNV-1">
          <mxGeometry x="520" y="210" width="50" height="30" as="geometry" />
        </mxCell>
        <mxCell id="3X7p2unca6fkdNCQizrL-18" style="edgeStyle=orthogonalEdgeStyle;rounded=0;orthogonalLoop=1;jettySize=auto;html=1;exitX=1;exitY=0.5;exitDx=0;exitDy=0;entryX=0;entryY=0.5;entryDx=0;entryDy=0;" edge="1" parent="WIyWlLk6GJQsqaUBKTNV-1" source="3X7p2unca6fkdNCQizrL-19" target="3X7p2unca6fkdNCQizrL-21">
          <mxGeometry relative="1" as="geometry" />
        </mxCell>
        <mxCell id="3X7p2unca6fkdNCQizrL-19" value="Withdraw&lt;div&gt;Begin&lt;/div&gt;" style="rounded=1;whiteSpace=wrap;html=1;arcSize=50;" vertex="1" parent="WIyWlLk6GJQsqaUBKTNV-1">
          <mxGeometry x="70" y="395" width="120" height="60" as="geometry" />
        </mxCell>
        <mxCell id="3X7p2unca6fkdNCQizrL-20" style="edgeStyle=orthogonalEdgeStyle;rounded=0;orthogonalLoop=1;jettySize=auto;html=1;exitX=1;exitY=0.5;exitDx=0;exitDy=0;entryX=0;entryY=0.5;entryDx=0;entryDy=0;" edge="1" parent="WIyWlLk6GJQsqaUBKTNV-1" source="3X7p2unca6fkdNCQizrL-21" target="3X7p2unca6fkdNCQizrL-24">
          <mxGeometry relative="1" as="geometry" />
        </mxCell>
        <mxCell id="3X7p2unca6fkdNCQizrL-21" value="self.account.withdraw(amount)" style="rounded=1;whiteSpace=wrap;html=1;" vertex="1" parent="WIyWlLk6GJQsqaUBKTNV-1">
          <mxGeometry x="290" y="395" width="180" height="60" as="geometry" />
        </mxCell>
        <mxCell id="3X7p2unca6fkdNCQizrL-22" style="edgeStyle=orthogonalEdgeStyle;rounded=0;orthogonalLoop=1;jettySize=auto;html=1;exitX=1;exitY=0.5;exitDx=0;exitDy=0;entryX=0;entryY=0.5;entryDx=0;entryDy=0;" edge="1" parent="WIyWlLk6GJQsqaUBKTNV-1" source="3X7p2unca6fkdNCQizrL-24" target="3X7p2unca6fkdNCQizrL-26">
          <mxGeometry relative="1" as="geometry" />
        </mxCell>
        <mxCell id="3X7p2unca6fkdNCQizrL-23" style="edgeStyle=orthogonalEdgeStyle;rounded=0;orthogonalLoop=1;jettySize=auto;html=1;exitX=0.5;exitY=1;exitDx=0;exitDy=0;entryX=0.5;entryY=0;entryDx=0;entryDy=0;" edge="1" parent="WIyWlLk6GJQsqaUBKTNV-1" source="3X7p2unca6fkdNCQizrL-24" target="3X7p2unca6fkdNCQizrL-32">
          <mxGeometry relative="1" as="geometry" />
        </mxCell>
        <mxCell id="3X7p2unca6fkdNCQizrL-24" value="0&amp;lt;amount&amp;lt;balance?" style="rhombus;whiteSpace=wrap;html=1;" vertex="1" parent="WIyWlLk6GJQsqaUBKTNV-1">
          <mxGeometry x="517.5" y="362.5" width="125" height="125" as="geometry" />
        </mxCell>
        <mxCell id="3X7p2unca6fkdNCQizrL-25" style="edgeStyle=orthogonalEdgeStyle;rounded=0;orthogonalLoop=1;jettySize=auto;html=1;exitX=1;exitY=0.5;exitDx=0;exitDy=0;entryX=0;entryY=0.5;entryDx=0;entryDy=0;" edge="1" parent="WIyWlLk6GJQsqaUBKTNV-1" source="3X7p2unca6fkdNCQizrL-26" target="3X7p2unca6fkdNCQizrL-29">
          <mxGeometry relative="1" as="geometry" />
        </mxCell>
        <mxCell id="3X7p2unca6fkdNCQizrL-26" value="balance - amount" style="rounded=0;whiteSpace=wrap;html=1;" vertex="1" parent="WIyWlLk6GJQsqaUBKTNV-1">
          <mxGeometry x="700" y="395" width="190" height="60" as="geometry" />
        </mxCell>
        <mxCell id="3X7p2unca6fkdNCQizrL-27" value="True" style="text;html=1;align=center;verticalAlign=middle;resizable=0;points=[];autosize=1;strokeColor=none;fillColor=none;" vertex="1" parent="WIyWlLk6GJQsqaUBKTNV-1">
          <mxGeometry x="640" y="385" width="50" height="30" as="geometry" />
        </mxCell>
        <mxCell id="3X7p2unca6fkdNCQizrL-28" style="edgeStyle=orthogonalEdgeStyle;rounded=0;orthogonalLoop=1;jettySize=auto;html=1;exitX=0.5;exitY=1;exitDx=0;exitDy=0;" edge="1" parent="WIyWlLk6GJQsqaUBKTNV-1" source="3X7p2unca6fkdNCQizrL-29" target="3X7p2unca6fkdNCQizrL-30">
          <mxGeometry relative="1" as="geometry" />
        </mxCell>
        <mxCell id="3X7p2unca6fkdNCQizrL-29" value="Return True" style="rounded=0;whiteSpace=wrap;html=1;" vertex="1" parent="WIyWlLk6GJQsqaUBKTNV-1">
          <mxGeometry x="950" y="395" width="120" height="60" as="geometry" />
        </mxCell>
        <mxCell id="3X7p2unca6fkdNCQizrL-30" value="End" style="rounded=1;whiteSpace=wrap;html=1;arcSize=50;" vertex="1" parent="WIyWlLk6GJQsqaUBKTNV-1">
          <mxGeometry x="950" y="525" width="120" height="60" as="geometry" />
        </mxCell>
        <mxCell id="3X7p2unca6fkdNCQizrL-31" style="edgeStyle=orthogonalEdgeStyle;rounded=0;orthogonalLoop=1;jettySize=auto;html=1;exitX=1;exitY=0.5;exitDx=0;exitDy=0;entryX=0;entryY=0.5;entryDx=0;entryDy=0;" edge="1" parent="WIyWlLk6GJQsqaUBKTNV-1" source="3X7p2unca6fkdNCQizrL-32" target="3X7p2unca6fkdNCQizrL-30">
          <mxGeometry relative="1" as="geometry" />
        </mxCell>
        <mxCell id="3X7p2unca6fkdNCQizrL-32" value="Return False" style="rounded=0;whiteSpace=wrap;html=1;" vertex="1" parent="WIyWlLk6GJQsqaUBKTNV-1">
          <mxGeometry x="520" y="525" width="120" height="60" as="geometry" />
        </mxCell>
        <mxCell id="3X7p2unca6fkdNCQizrL-33" value="False" style="text;html=1;align=center;verticalAlign=middle;resizable=0;points=[];autosize=1;strokeColor=none;fillColor=none;" vertex="1" parent="WIyWlLk6GJQsqaUBKTNV-1">
          <mxGeometry x="520" y="485" width="50" height="30" as="geometry" />
        </mxCell>
        <mxCell id="3X7p2unca6fkdNCQizrL-34" style="edgeStyle=orthogonalEdgeStyle;rounded=0;orthogonalLoop=1;jettySize=auto;html=1;exitX=1;exitY=0.5;exitDx=0;exitDy=0;entryX=0;entryY=0.5;entryDx=0;entryDy=0;" edge="1" parent="WIyWlLk6GJQsqaUBKTNV-1" source="3X7p2unca6fkdNCQizrL-35" target="3X7p2unca6fkdNCQizrL-36">
          <mxGeometry relative="1" as="geometry" />
        </mxCell>
        <mxCell id="3X7p2unca6fkdNCQizrL-35" value="Balance&lt;div&gt;Begin&lt;/div&gt;" style="rounded=1;whiteSpace=wrap;html=1;arcSize=50;" vertex="1" parent="WIyWlLk6GJQsqaUBKTNV-1">
          <mxGeometry x="70" y="670" width="120" height="60" as="geometry" />
        </mxCell>
        <mxCell id="3X7p2unca6fkdNCQizrL-38" style="edgeStyle=orthogonalEdgeStyle;rounded=0;orthogonalLoop=1;jettySize=auto;html=1;exitX=1;exitY=0.5;exitDx=0;exitDy=0;entryX=0;entryY=0.5;entryDx=0;entryDy=0;" edge="1" parent="WIyWlLk6GJQsqaUBKTNV-1" source="3X7p2unca6fkdNCQizrL-36" target="3X7p2unca6fkdNCQizrL-37">
          <mxGeometry relative="1" as="geometry" />
        </mxCell>
        <mxCell id="3X7p2unca6fkdNCQizrL-36" value="self.account.get_balance()" style="rounded=1;whiteSpace=wrap;html=1;" vertex="1" parent="WIyWlLk6GJQsqaUBKTNV-1">
          <mxGeometry x="290" y="670" width="180" height="60" as="geometry" />
        </mxCell>
        <mxCell id="3X7p2unca6fkdNCQizrL-40" style="edgeStyle=orthogonalEdgeStyle;rounded=0;orthogonalLoop=1;jettySize=auto;html=1;exitX=1;exitY=0.5;exitDx=0;exitDy=0;entryX=0;entryY=0.5;entryDx=0;entryDy=0;" edge="1" parent="WIyWlLk6GJQsqaUBKTNV-1" source="3X7p2unca6fkdNCQizrL-37" target="3X7p2unca6fkdNCQizrL-39">
          <mxGeometry relative="1" as="geometry" />
        </mxCell>
        <mxCell id="3X7p2unca6fkdNCQizrL-37" value="Return Balance" style="rounded=0;whiteSpace=wrap;html=1;" vertex="1" parent="WIyWlLk6GJQsqaUBKTNV-1">
          <mxGeometry x="517.5" y="670" width="120" height="60" as="geometry" />
        </mxCell>
        <mxCell id="3X7p2unca6fkdNCQizrL-39" value="End" style="rounded=1;whiteSpace=wrap;html=1;arcSize=50;" vertex="1" parent="WIyWlLk6GJQsqaUBKTNV-1">
          <mxGeometry x="700" y="670" width="120" height="60" as="geometry" />
        </mxCell>
        <mxCell id="3X7p2unca6fkdNCQizrL-41" style="edgeStyle=orthogonalEdgeStyle;rounded=0;orthogonalLoop=1;jettySize=auto;html=1;exitX=1;exitY=0.5;exitDx=0;exitDy=0;entryX=0;entryY=0.5;entryDx=0;entryDy=0;" edge="1" parent="WIyWlLk6GJQsqaUBKTNV-1" source="3X7p2unca6fkdNCQizrL-42" target="3X7p2unca6fkdNCQizrL-44">
          <mxGeometry relative="1" as="geometry" />
        </mxCell>
        <mxCell id="3X7p2unca6fkdNCQizrL-42" value="Create Account&lt;div&gt;Begin&lt;/div&gt;" style="rounded=1;whiteSpace=wrap;html=1;arcSize=50;" vertex="1" parent="WIyWlLk6GJQsqaUBKTNV-1">
          <mxGeometry x="70" y="852.5" width="120" height="60" as="geometry" />
        </mxCell>
        <mxCell id="3X7p2unca6fkdNCQizrL-43" style="edgeStyle=orthogonalEdgeStyle;rounded=0;orthogonalLoop=1;jettySize=auto;html=1;exitX=1;exitY=0.5;exitDx=0;exitDy=0;entryX=0;entryY=0.5;entryDx=0;entryDy=0;" edge="1" parent="WIyWlLk6GJQsqaUBKTNV-1" source="3X7p2unca6fkdNCQizrL-44" target="3X7p2unca6fkdNCQizrL-47">
          <mxGeometry relative="1" as="geometry" />
        </mxCell>
        <mxCell id="3X7p2unca6fkdNCQizrL-44" value="self.bank.create_account(number, name)" style="rounded=1;whiteSpace=wrap;html=1;" vertex="1" parent="WIyWlLk6GJQsqaUBKTNV-1">
          <mxGeometry x="290" y="852.5" width="240" height="60" as="geometry" />
        </mxCell>
        <mxCell id="3X7p2unca6fkdNCQizrL-45" style="edgeStyle=orthogonalEdgeStyle;rounded=0;orthogonalLoop=1;jettySize=auto;html=1;exitX=1;exitY=0.5;exitDx=0;exitDy=0;entryX=0;entryY=0.5;entryDx=0;entryDy=0;" edge="1" parent="WIyWlLk6GJQsqaUBKTNV-1" source="3X7p2unca6fkdNCQizrL-47" target="3X7p2unca6fkdNCQizrL-49">
          <mxGeometry relative="1" as="geometry" />
        </mxCell>
        <mxCell id="3X7p2unca6fkdNCQizrL-46" style="edgeStyle=orthogonalEdgeStyle;rounded=0;orthogonalLoop=1;jettySize=auto;html=1;exitX=0.5;exitY=1;exitDx=0;exitDy=0;entryX=0.5;entryY=0;entryDx=0;entryDy=0;" edge="1" parent="WIyWlLk6GJQsqaUBKTNV-1" source="3X7p2unca6fkdNCQizrL-47" target="3X7p2unca6fkdNCQizrL-55">
          <mxGeometry relative="1" as="geometry" />
        </mxCell>
        <mxCell id="3X7p2unca6fkdNCQizrL-47" value="number not in accounts?" style="rhombus;whiteSpace=wrap;html=1;" vertex="1" parent="WIyWlLk6GJQsqaUBKTNV-1">
          <mxGeometry x="710" y="820" width="125" height="125" as="geometry" />
        </mxCell>
        <mxCell id="3X7p2unca6fkdNCQizrL-48" style="edgeStyle=orthogonalEdgeStyle;rounded=0;orthogonalLoop=1;jettySize=auto;html=1;exitX=1;exitY=0.5;exitDx=0;exitDy=0;entryX=0;entryY=0.5;entryDx=0;entryDy=0;" edge="1" parent="WIyWlLk6GJQsqaUBKTNV-1" source="3X7p2unca6fkdNCQizrL-49" target="3X7p2unca6fkdNCQizrL-52">
          <mxGeometry relative="1" as="geometry" />
        </mxCell>
        <mxCell id="3X7p2unca6fkdNCQizrL-49" value="craete account" style="rounded=0;whiteSpace=wrap;html=1;" vertex="1" parent="WIyWlLk6GJQsqaUBKTNV-1">
          <mxGeometry x="892.5" y="852.5" width="190" height="60" as="geometry" />
        </mxCell>
        <mxCell id="3X7p2unca6fkdNCQizrL-50" value="True" style="text;html=1;align=center;verticalAlign=middle;resizable=0;points=[];autosize=1;strokeColor=none;fillColor=none;" vertex="1" parent="WIyWlLk6GJQsqaUBKTNV-1">
          <mxGeometry x="640" y="842.5" width="50" height="30" as="geometry" />
        </mxCell>
        <mxCell id="3X7p2unca6fkdNCQizrL-51" style="edgeStyle=orthogonalEdgeStyle;rounded=0;orthogonalLoop=1;jettySize=auto;html=1;exitX=0.5;exitY=1;exitDx=0;exitDy=0;" edge="1" parent="WIyWlLk6GJQsqaUBKTNV-1" source="3X7p2unca6fkdNCQizrL-52" target="3X7p2unca6fkdNCQizrL-53">
          <mxGeometry relative="1" as="geometry" />
        </mxCell>
        <mxCell id="3X7p2unca6fkdNCQizrL-52" value="Return True" style="rounded=0;whiteSpace=wrap;html=1;" vertex="1" parent="WIyWlLk6GJQsqaUBKTNV-1">
          <mxGeometry x="1142.5" y="852.5" width="120" height="60" as="geometry" />
        </mxCell>
        <mxCell id="3X7p2unca6fkdNCQizrL-53" value="End" style="rounded=1;whiteSpace=wrap;html=1;arcSize=50;" vertex="1" parent="WIyWlLk6GJQsqaUBKTNV-1">
          <mxGeometry x="1142.5" y="982.5" width="120" height="60" as="geometry" />
        </mxCell>
        <mxCell id="3X7p2unca6fkdNCQizrL-54" style="edgeStyle=orthogonalEdgeStyle;rounded=0;orthogonalLoop=1;jettySize=auto;html=1;exitX=1;exitY=0.5;exitDx=0;exitDy=0;entryX=0;entryY=0.5;entryDx=0;entryDy=0;" edge="1" parent="WIyWlLk6GJQsqaUBKTNV-1" source="3X7p2unca6fkdNCQizrL-55" target="3X7p2unca6fkdNCQizrL-53">
          <mxGeometry relative="1" as="geometry" />
        </mxCell>
        <mxCell id="3X7p2unca6fkdNCQizrL-55" value="Return False" style="rounded=0;whiteSpace=wrap;html=1;" vertex="1" parent="WIyWlLk6GJQsqaUBKTNV-1">
          <mxGeometry x="712.5" y="982.5" width="120" height="60" as="geometry" />
        </mxCell>
        <mxCell id="3X7p2unca6fkdNCQizrL-56" value="False" style="text;html=1;align=center;verticalAlign=middle;resizable=0;points=[];autosize=1;strokeColor=none;fillColor=none;" vertex="1" parent="WIyWlLk6GJQsqaUBKTNV-1">
          <mxGeometry x="712.5" y="942.5" width="50" height="30" as="geometry" />
        </mxCell>
      </root>
    </mxGraphModel>
  </diagram>
</mxfile>
